# Blender v2.78 (sub 0) OBJ File: ''
# www.blender.org
mtllib Lens.mtl
o scythe.thing.SMD.mesh_3
v 1.383522 10.167315 8.983472
v 1.383510 10.085849 8.870157
v 1.653725 10.167304 8.911204
v 1.169967 10.085830 8.813045
v 1.113319 10.167304 8.911204
v 1.013546 10.085838 8.656627
v 0.915395 10.167313 8.713284
v 0.956423 10.085835 8.443074
v 0.843116 10.167313 8.443071
v 1.013546 10.085838 8.229529
v 0.915395 10.167309 8.172867
v 1.169966 10.085842 8.073107
v 1.113319 10.167316 7.974940
v 1.383510 10.085846 8.015993
v 1.383522 10.167313 7.902672
v 1.597054 10.085842 8.073107
v 1.653725 10.167316 7.974940
v 1.753208 10.085838 8.229529
v 1.851311 10.167309 8.172867
v 1.810598 10.085835 8.443074
v 1.281018 10.034599 8.620609
v 1.205958 10.034611 8.545548
v 1.923928 10.167313 8.443071
v 1.753208 10.085838 8.656627
v 1.851311 10.167313 8.713284
v 1.597054 10.085830 8.813045
v 1.383487 10.034618 8.648014
v 1.383466 10.007500 8.443079
v 1.178548 10.034607 8.443075
v 1.205958 10.034611 8.340607
v 1.281018 10.034616 8.265548
v 1.383487 10.034622 8.238141
v 1.485957 10.034616 8.265548
v 1.560888 10.034611 8.340607
v 1.588426 10.034607 8.443075
v 1.560888 10.034611 8.545548
v 1.485957 10.034599 8.620609
v 1.040517 15.667552 8.245090
v 1.182298 15.700763 8.326939
v 1.185534 15.667537 8.100074
v 1.151233 15.700759 8.443066
v 0.987559 15.667552 8.443065
v 1.793697 15.623633 8.206137
v 1.726251 15.667552 8.245090
v 1.857372 15.623626 8.443064
v 1.581482 15.667537 8.100074
v 1.620444 15.623618 8.032585
v 1.383508 15.667542 8.047122
v 1.383516 15.623622 7.969215
v 1.267362 15.700744 8.241872
v 1.383467 15.718661 8.443067
v 1.182298 15.700755 8.559194
v 1.040517 15.667548 8.641038
v 1.267362 15.700751 8.644260
v 1.185534 15.667547 8.786060
v 1.383491 15.700751 8.675323
v 1.383508 15.667547 8.839011
v 1.499620 15.700751 8.644260
v 1.581482 15.667547 8.786060
v 1.584539 15.700755 8.559194
v 1.726251 15.667548 8.641038
v 1.615748 15.700759 8.443066
v 1.779457 15.667552 8.443065
v 1.584539 15.700763 8.326939
v 1.499620 15.700744 8.241872
v 1.383491 15.700751 8.210813
v 1.146588 15.623618 8.032585
v 0.973038 15.623633 8.206137
v 0.909660 15.623626 8.443064
v 0.973038 15.623626 8.679990
v 1.146588 15.623632 8.853549
v 1.383516 15.623621 8.916917
v 1.620444 15.623632 8.853549
v 1.793697 15.623626 8.679990
vt 0.1710 -0.6172
vt 0.1880 -0.6136
vt 0.1707 -0.5852
vt 0.2049 -0.6355
vt 0.1923 -0.6449
vt 0.2338 -0.6480
vt 0.2289 -0.6607
vt 0.2670 -0.6478
vt 0.2709 -0.6605
vt 0.2957 -0.6350
vt 0.3072 -0.6443
vt 0.3121 -0.6130
vt 0.3280 -0.6164
vt 0.3118 -0.5877
vt 0.3276 -0.5844
vt 0.2950 -0.5658
vt 0.3063 -0.5567
vt 0.2661 -0.5534
vt 0.2698 -0.5409
vt 0.2328 -0.5535
vt 0.2287 -0.6173
vt 0.2426 -0.6233
vt 0.2277 -0.5411
vt 0.2042 -0.5663
vt 0.1914 -0.5574
vt 0.1878 -0.5883
vt 0.2206 -0.6068
vt 0.2505 -0.6005
vt 0.2585 -0.6232
vt 0.2723 -0.6171
vt 0.2801 -0.6065
vt 0.2800 -0.5944
vt 0.2719 -0.5839
vt 0.2581 -0.5779
vt 0.2421 -0.5780
vt 0.2284 -0.5841
vt 0.2205 -0.5947
vt 0.2657 -0.6878
vt 0.2600 -0.7040
vt 0.2897 -0.6981
vt 0.2439 -0.7041
vt 0.2382 -0.6879
vt 0.2980 -0.7609
vt 0.2902 -0.7554
vt 0.2696 -0.7736
vt 0.3038 -0.7372
vt 0.3142 -0.7391
vt 0.3036 -0.7162
vt 0.3140 -0.7140
vt 0.2740 -0.7101
vt 0.2520 -0.7270
vt 0.2300 -0.7103
vt 0.2145 -0.6985
vt 0.2220 -0.7210
vt 0.2009 -0.7167
vt 0.2221 -0.7333
vt 0.2012 -0.7377
vt 0.2303 -0.7439
vt 0.2151 -0.7558
vt 0.2443 -0.7500
vt 0.2390 -0.7661
vt 0.2604 -0.7499
vt 0.2665 -0.7660
vt 0.2743 -0.7437
vt 0.2823 -0.7330
vt 0.2822 -0.7207
vt 0.2973 -0.6924
vt 0.2687 -0.6800
vt 0.2358 -0.6802
vt 0.2074 -0.6929
vt 0.1911 -0.7147
vt 0.1914 -0.7397
vt 0.2080 -0.7614
vt 0.2367 -0.7737
vn 0.0000 -0.8119 0.5837
vn 0.0000 -0.8986 0.4388
vn 0.2919 -0.8120 0.5054
vn -0.2193 -0.8986 0.3800
vn -0.2917 -0.8120 0.5056
vn -0.3801 -0.8986 0.2193
vn -0.5056 -0.8119 0.2918
vn -0.4388 -0.8986 -0.0000
vn -0.5838 -0.8119 -0.0000
vn -0.3800 -0.8986 -0.2193
vn -0.5056 -0.8120 -0.2918
vn -0.2193 -0.8986 -0.3800
vn -0.2917 -0.8120 -0.5056
vn -0.0000 -0.8986 -0.4387
vn -0.0000 -0.8120 -0.5837
vn 0.2195 -0.8986 -0.3799
vn 0.2919 -0.8120 -0.5054
vn 0.3800 -0.8986 -0.2194
vn 0.5056 -0.8119 -0.2919
vn 0.4388 -0.8986 0.0000
vn -0.0928 -0.9826 0.1609
vn -0.1609 -0.9826 0.0928
vn 0.5837 -0.8119 0.0000
vn 0.3800 -0.8986 0.2194
vn 0.5057 -0.8118 0.2919
vn 0.2194 -0.8986 0.3800
vn 0.0000 -0.9826 0.1858
vn 0.0000 -1.0000 -0.0000
vn -0.1858 -0.9826 -0.0000
vn -0.1609 -0.9826 -0.0929
vn -0.0928 -0.9826 -0.1609
vn -0.0000 -0.9826 -0.1858
vn 0.0929 -0.9826 -0.1609
vn 0.1609 -0.9826 -0.0929
vn 0.1858 -0.9826 0.0000
vn 0.1609 -0.9826 0.0928
vn 0.0929 -0.9826 0.1608
vn -0.3218 0.9284 -0.1857
vn -0.1283 0.9890 -0.0741
vn -0.1857 0.9284 -0.3218
vn -0.1481 0.9890 0.0000
vn -0.3716 0.9284 0.0000
vn 0.4254 0.8711 -0.2456
vn 0.3218 0.9284 -0.1858
vn 0.4911 0.8711 0.0000
vn 0.1858 0.9284 -0.3218
vn 0.2455 0.8712 -0.4252
vn -0.0000 0.9284 -0.3716
vn 0.0000 0.8711 -0.4911
vn -0.0740 0.9890 -0.1283
vn 0.0000 1.0000 -0.0000
vn -0.1283 0.9890 0.0741
vn -0.3219 0.9284 0.1857
vn -0.0740 0.9890 0.1283
vn -0.1857 0.9284 0.3218
vn -0.0000 0.9890 0.1481
vn 0.0000 0.9284 0.3716
vn 0.0741 0.9890 0.1283
vn 0.1858 0.9284 0.3217
vn 0.1283 0.9890 0.0741
vn 0.3218 0.9284 0.1858
vn 0.1481 0.9890 0.0000
vn 0.3717 0.9284 0.0000
vn 0.1283 0.9890 -0.0741
vn 0.0741 0.9890 -0.1283
vn -0.0000 0.9890 -0.1481
vn -0.2454 0.8711 -0.4253
vn -0.4253 0.8711 -0.2455
vn -0.4912 0.8711 0.0000
vn -0.4253 0.8711 0.2454
vn -0.2454 0.8712 0.4253
vn 0.0000 0.8711 0.4911
vn 0.2455 0.8712 0.4251
vn 0.4254 0.8710 0.2456
usemtl None
s 1
f 1/1/1 2/2/2 3/3/3
f 2/2/2 1/1/1 4/4/4
f 5/5/5 4/4/4 1/1/1
f 4/4/4 5/5/5 6/6/6
f 7/7/7 6/6/6 5/5/5
f 6/6/6 7/7/7 8/8/8
f 9/9/9 8/8/8 7/7/7
f 8/8/8 9/9/9 10/10/10
f 11/11/11 10/10/10 9/9/9
f 10/10/10 11/11/11 12/12/12
f 13/13/13 12/12/12 11/11/11
f 12/12/12 13/13/13 14/14/14
f 15/15/15 14/14/14 13/13/13
f 14/14/14 15/15/15 16/16/16
f 17/17/17 16/16/16 15/15/15
f 16/16/16 17/17/17 18/18/18
f 19/19/19 18/18/18 17/17/17
f 18/18/18 19/19/19 20/20/20
f 4/4/4 21/21/21 2/2/2
f 21/21/21 4/4/4 22/22/22
f 6/6/6 22/22/22 4/4/4
f 23/23/23 20/20/20 19/19/19
f 20/20/20 23/23/23 24/24/24
f 25/25/25 24/24/24 23/23/23
f 24/24/24 25/25/25 26/26/26
f 3/3/3 26/26/26 25/25/25
f 26/26/26 3/3/3 2/2/2
f 2/2/2 27/27/27 26/26/26
f 27/27/27 2/2/2 21/21/21
f 21/21/21 28/28/28 27/27/27
f 22/22/22 28/28/28 21/21/21
f 29/29/29 28/28/28 22/22/22
f 22/22/22 6/6/6 29/29/29
f 8/8/8 29/29/29 6/6/6
f 29/29/29 8/8/8 30/30/30
f 10/10/10 30/30/30 8/8/8
f 30/30/30 10/10/10 31/31/31
f 12/12/12 31/31/31 10/10/10
f 31/31/31 12/12/12 32/32/32
f 14/14/14 32/32/32 12/12/12
f 32/32/32 14/14/14 33/33/33
f 16/16/16 33/33/33 14/14/14
f 33/33/33 16/16/16 34/34/34
f 18/18/18 34/34/34 16/16/16
f 34/34/34 18/18/18 35/35/35
f 20/20/20 35/35/35 18/18/18
f 35/35/35 20/20/20 36/36/36
f 24/24/24 36/36/36 20/20/20
f 36/36/36 24/24/24 37/37/37
f 26/26/26 37/37/37 24/24/24
f 37/37/37 26/26/26 27/27/27
f 27/27/27 28/28/28 37/37/37
f 37/37/37 28/28/28 36/36/36
f 36/36/36 28/28/28 35/35/35
f 35/35/35 28/28/28 34/34/34
f 34/34/34 28/28/28 33/33/33
f 33/33/33 28/28/28 32/32/32
f 32/32/32 28/28/28 31/31/31
f 31/31/31 28/28/28 30/30/30
f 30/30/30 28/28/28 29/29/29
f 38/38/38 39/39/39 40/40/40
f 39/39/39 38/38/38 41/41/41
f 42/42/42 41/41/41 38/38/38
f 43/43/43 44/44/44 45/45/45
f 44/44/44 43/43/43 46/46/46
f 47/47/47 46/46/46 43/43/43
f 46/46/46 47/47/47 48/48/48
f 49/49/49 48/48/48 47/47/47
f 48/48/48 49/49/49 40/40/40
f 40/40/40 50/50/50 48/48/48
f 50/50/50 40/40/40 39/39/39
f 39/39/39 51/51/51 50/50/50
f 41/41/41 51/51/51 39/39/39
f 52/52/52 51/51/51 41/41/41
f 41/41/41 42/42/42 52/52/52
f 53/53/53 52/52/52 42/42/42
f 52/52/52 53/53/53 54/54/54
f 55/55/55 54/54/54 53/53/53
f 54/54/54 55/55/55 56/56/56
f 57/57/57 56/56/56 55/55/55
f 56/56/56 57/57/57 58/58/58
f 59/59/59 58/58/58 57/57/57
f 58/58/58 59/59/59 60/60/60
f 61/61/61 60/60/60 59/59/59
f 60/60/60 61/61/61 62/62/62
f 63/63/63 62/62/62 61/61/61
f 62/62/62 63/63/63 64/64/64
f 44/44/44 64/64/64 63/63/63
f 64/64/64 44/44/44 65/65/65
f 46/46/46 65/65/65 44/44/44
f 65/65/65 46/46/46 66/66/66
f 48/48/48 66/66/66 46/46/46
f 66/66/66 48/48/48 50/50/50
f 50/50/50 51/51/51 66/66/66
f 66/66/66 51/51/51 65/65/65
f 65/65/65 51/51/51 64/64/64
f 64/64/64 51/51/51 62/62/62
f 62/62/62 51/51/51 60/60/60
f 60/60/60 51/51/51 58/58/58
f 58/58/58 51/51/51 56/56/56
f 56/56/56 51/51/51 54/54/54
f 54/54/54 51/51/51 52/52/52
f 67/67/67 40/40/40 49/49/49
f 40/40/40 67/67/67 38/38/38
f 68/68/68 38/38/38 67/67/67
f 38/38/38 68/68/68 42/42/42
f 69/69/69 42/42/42 68/68/68
f 42/42/42 69/69/69 53/53/53
f 70/70/70 53/53/53 69/69/69
f 53/53/53 70/70/70 55/55/55
f 71/71/71 55/55/55 70/70/70
f 55/55/55 71/71/71 57/57/57
f 72/72/72 57/57/57 71/71/71
f 57/57/57 72/72/72 59/59/59
f 73/73/73 59/59/59 72/72/72
f 59/59/59 73/73/73 61/61/61
f 74/74/74 61/61/61 73/73/73
f 61/61/61 74/74/74 63/63/63
f 45/45/45 63/63/63 74/74/74
f 63/63/63 45/45/45 44/44/44
o scythe.thing.SMD.mesh_5
v 1.383541 57.497025 5.360957
v 1.304648 57.497028 4.876596
v 1.462027 57.497028 4.876596
v 1.462027 57.497028 4.876596
v 1.383541 58.349751 5.360940
v 1.383541 57.497025 5.360957
v 1.462027 58.349751 4.876596
v 1.304648 58.349751 4.876596
v 1.383541 57.497025 5.360957
v 1.383541 58.349751 5.360940
v 1.304648 57.497028 4.876596
v 1.462026 51.417400 4.879785
v 1.383540 55.196117 5.365747
v 1.383540 51.417393 5.365746
v 1.462026 55.196125 4.879785
v 1.304647 55.196125 4.879785
v 1.383540 51.417393 5.365746
v 1.383540 55.196117 5.365747
v 1.304647 51.417400 4.879785
v 1.440066 55.196121 2.857034
v 1.383540 51.417389 2.416588
v 1.383540 55.196114 2.416604
v 1.440066 51.417400 2.857033
v 1.326607 51.417400 2.857033
v 1.383540 55.196114 2.416604
v 1.383540 51.417389 2.416588
v 1.326607 55.196121 2.857034
v 1.326607 57.497028 2.859552
v 1.383541 58.349751 2.420771
v 1.383541 57.497021 2.420755
v 1.326608 58.349754 2.859553
v 1.440067 58.349754 2.859553
v 1.383541 57.497021 2.420755
v 1.383541 58.349751 2.420771
v 1.440067 57.497028 2.859552
v 1.383541 58.349751 5.360940
v 1.383541 63.323311 3.907114
v 1.304648 58.349751 4.876596
v 1.462027 58.349751 4.876596
v 1.383541 63.323311 3.907114
v 1.383541 58.349751 5.360940
v 1.383540 51.417393 5.365746
v 1.304647 51.417400 4.879785
v 1.462026 51.417400 4.879785
v 1.383541 58.349751 2.420771
v 1.383541 63.323311 3.907114
v 1.440067 58.349754 2.859553
v 1.383540 55.196117 5.365747
v 1.462026 55.196125 4.879785
v 1.304647 55.196125 4.879785
v 1.383541 57.497021 2.420755
v 1.440067 57.497028 2.859552
v 1.326607 57.497028 2.859552
v 1.383540 55.196114 2.416604
v 1.326607 55.196121 2.857034
v 1.440066 55.196121 2.857034
v 1.326608 58.349754 2.859553
v 1.383541 63.323311 3.907114
v 1.383541 58.349751 2.420771
v 1.383540 51.417389 2.416588
v 1.440066 51.417400 2.857033
v 1.326607 51.417400 2.857033
vt 0.0270 -0.6309
vt 0.0205 -0.6706
vt 0.0335 -0.6706
vt 0.2351 -0.6560
vt 0.2702 -0.6354
vt 0.2348 -0.6359
vt 0.2705 -0.6555
vt 0.2704 -0.6556
vt 0.2347 -0.6359
vt 0.2701 -0.6354
vt 0.2349 -0.6560
vt 0.0576 -0.6584
vt 0.2143 -0.6359
vt 0.0573 -0.6382
vt 0.2146 -0.6561
vt 0.2144 -0.6559
vt 0.0571 -0.6378
vt 0.2141 -0.6357
vt 0.0574 -0.6580
vt 0.2163 -0.7611
vt 0.0595 -0.7817
vt 0.2165 -0.7794
vt 0.0593 -0.7634
vt 0.0589 -0.7630
vt 0.2162 -0.7792
vt 0.0592 -0.7813
vt 0.2159 -0.7609
vt 0.2365 -0.7608
vt 0.2721 -0.7786
vt 0.2367 -0.7790
vt 0.2719 -0.7603
vt 0.2722 -0.7603
vt 0.2371 -0.7790
vt 0.2725 -0.7785
vt 0.2368 -0.7608
vt 0.2701 -0.6354
vt 0.4775 -0.6931
vt 0.2704 -0.6556
vt 0.2705 -0.6555
vt 0.4778 -0.6927
vt 0.2702 -0.6354
vt 0.0098 -0.6311
vt 0.0033 -0.6709
vt 0.0162 -0.6709
vt 0.2725 -0.7785
vt 0.4782 -0.7137
vt 0.2722 -0.7603
vt 0.0452 -0.6301
vt 0.0387 -0.6700
vt 0.0516 -0.6700
vt 0.0270 -0.7106
vt 0.0317 -0.6746
vt 0.0224 -0.6746
vt 0.0452 -0.7105
vt 0.0498 -0.6744
vt 0.0405 -0.6744
vt 0.2719 -0.7603
vt 0.4780 -0.7141
vt 0.2721 -0.7786
vt 0.0098 -0.7115
vt 0.0145 -0.6754
vt 0.0051 -0.6754
vn 0.0000 -1.0000 -0.0000
vn 0.9871 0.0000 0.1600
vn -0.9870 0.0000 0.1608
vn 0.9872 -0.0000 0.1594
vn -0.9871 -0.0000 0.1602
vn 0.9919 0.0000 -0.1273
vn -0.9917 0.0000 -0.1282
vn -0.9917 0.0000 -0.1287
vn 0.9918 0.0000 -0.1278
vn -0.9859 0.0469 0.1606
vn 0.9860 0.0467 0.1598
vn 0.9988 0.0431 0.0241
vn 0.9911 0.0382 -0.1277
vn 0.0000 1.0000 0.0000
vn -0.9910 0.0384 -0.1286
usemtl None
s 1
f 75/75/75 76/76/75 77/77/75
f 78/78/76 79/79/76 80/80/76
f 79/79/76 78/78/76 81/81/76
f 82/82/77 83/83/77 84/84/77
f 83/83/77 82/82/77 85/85/77
f 86/86/78 87/87/78 88/88/78
f 89/89/78 87/87/78 86/86/78
f 90/90/79 91/91/79 92/92/79
f 91/91/79 90/90/79 93/93/79
f 94/94/80 95/95/80 96/96/80
f 97/97/80 95/95/80 94/94/80
f 98/98/81 99/99/81 100/100/81
f 99/99/81 98/98/81 101/101/81
f 102/102/82 103/103/82 104/104/82
f 103/103/82 102/102/82 105/105/82
f 106/106/83 107/107/83 108/108/83
f 107/107/83 106/106/83 109/109/83
f 110/110/84 111/111/84 112/112/84
f 113/113/85 114/114/86 115/115/85
f 116/116/75 117/117/75 118/118/75
f 119/119/87 120/120/86 121/121/87
f 122/122/88 123/123/88 124/124/88
f 125/125/75 126/126/75 127/127/75
f 128/128/88 129/129/88 130/130/88
f 131/131/89 132/132/89 133/133/89
f 134/134/75 135/135/75 136/136/75
