# Blender v2.78 (sub 0) OBJ File: ''
# www.blender.org
mtllib Back Pouch.mtl
o ruby.ruby.SMD.mesh_12.003
v 3.497089 5.707072 -3.574303
v -3.441404 5.435131 -3.573086
v -3.493722 6.746009 -5.138882
v 3.445245 7.018427 -5.140106
v 2.977406 4.006539 -1.414680
v 2.911431 4.166958 -1.336414
v 2.346830 4.104782 -1.348736
v 2.323951 4.006063 -1.440533
v 2.954167 3.906870 -1.506596
v 2.954167 3.906870 -1.506596
v 2.965124 4.115699 -1.760757
v 2.323951 4.006063 -1.440533
v 2.357787 4.313612 -1.602901
v 2.469947 4.236251 -1.290226
v 2.919390 4.313612 -1.514187
v 2.988483 4.214893 -1.668854
v 3.189708 5.618795 -3.482838
v 3.185699 5.718939 -3.400745
v 3.183146 5.762126 -3.654148
v 3.179252 5.862749 -3.572147
v 3.177442 5.922074 -3.460918
v 2.537027 5.896918 -3.460289
v 2.540873 5.814335 -3.362061
v 2.538989 5.836168 -3.570450
v 2.545552 5.692835 -3.399090
v 2.549086 5.592218 -3.481228
v 2.334910 4.214420 -1.694675
v 3.181645 5.839965 -3.362675
v 2.542641 5.735552 -3.652618
v 3.183146 5.762126 -3.654148
v 2.542641 5.735552 -3.652618
v 2.478142 4.382432 -1.468067
v 2.542641 5.735552 -3.652618
v 3.183146 5.762126 -3.654148
v 3.189708 5.618795 -3.482838
v 2.549086 5.592218 -3.481228
v 2.965124 4.115699 -1.760757
v 2.334910 4.214420 -1.694675
v 2.954167 3.906870 -1.506596
v 2.323951 4.006063 -1.440533
v -1.664385 3.999424 -1.408230
v -1.636731 3.896434 -1.493515
v -1.729148 4.067768 -1.762459
v -1.800008 4.114755 -1.340469
v -2.222043 3.974271 -1.298767
v -2.267257 3.798665 -1.348576
v -2.240083 3.695674 -1.434017
v -1.636731 3.896434 -1.493515
v -2.359556 3.969999 -1.617550
v -2.286582 4.093874 -1.487045
v -1.864430 4.234832 -1.528851
v -1.756324 4.170760 -1.677109
v -2.123334 5.410923 -3.482624
v -2.127347 5.511539 -3.400623
v -2.129900 5.554255 -3.654011
v -2.133913 5.654873 -3.572014
v -2.135721 5.714200 -3.460758
v -2.776017 5.689044 -3.460136
v -2.772292 5.606462 -3.361897
v -2.774056 5.628296 -3.570297
v -2.767491 5.484962 -3.398911
v -2.763958 5.384345 -3.481068
v -2.332382 3.866533 -1.702969
v -2.240083 3.695674 -1.434017
v -2.131517 5.632088 -3.362453
v -2.770405 5.527678 -3.652470
v -2.129900 5.554255 -3.654011
v -2.770405 5.527678 -3.652470
v -1.636731 3.896434 -1.493515
v -2.240083 3.695674 -1.434017
v -2.332382 3.866533 -1.702969
v -1.729148 4.067768 -1.762459
v -2.763958 5.384345 -3.481068
v -2.123334 5.410923 -3.482624
v -2.770405 5.527678 -3.652470
v -2.129900 5.554255 -3.654011
v 3.497089 5.707072 -3.574303
v 3.492617 5.831896 -3.472427
v -3.441404 5.435131 -3.573086
v -3.446350 5.559477 -3.471203
v 3.440298 7.142774 -5.038284
v -3.498428 6.870832 -5.036976
v -3.493722 6.746009 -5.138882
v 3.445245 7.018427 -5.140106
v -3.441404 5.435131 -3.573086
v -3.493722 6.746009 -5.138882
v 3.445245 7.018427 -5.140106
v 3.497089 5.707072 -3.574303
vt -15.6042 15.8686
vt -15.8848 15.8686
vt -15.8849 15.9540
vt -15.6042 15.9540
vt -15.1995 15.9755
vt -15.1905 15.9702
vt -15.1518 15.9755
vt -15.1518 15.9848
vt -15.1995 15.9848
vt -15.2103 15.9755
vt -15.2103 15.9476
vt -15.1416 15.9755
vt -15.1518 15.9476
vt -15.1608 15.9702
vt -15.1905 15.9529
vt -15.1995 15.9476
vt -15.2103 15.8447
vt -15.1995 15.8447
vt -15.2103 15.8047
vt -15.1995 15.8047
vt -15.1901 15.8183
vt -15.1634 15.8183
vt -15.1634 15.8308
vt -15.1518 15.8047
vt -15.1518 15.8447
vt -15.1416 15.8447
vt -15.1416 15.9476
vt -15.1901 15.8308
vt -15.1518 15.7924
vt -15.2003 15.7924
vt -15.1416 15.8047
vt -15.1608 15.9529
vt -15.2171 15.9880
vt -15.2514 15.9880
vt -15.2514 15.9775
vt -15.2171 15.9775
vt -15.2514 15.8755
vt -15.2171 15.8755
vt -15.2514 15.8601
vt -15.2171 15.8601
vt -15.0800 15.9755
vt -15.0908 15.9755
vt -15.0908 15.9476
vt -15.0710 15.9702
vt -15.0413 15.9702
vt -15.0322 15.9755
vt -15.0322 15.9848
vt -15.0800 15.9848
vt -15.0322 15.9476
vt -15.0413 15.9529
vt -15.0710 15.9529
vt -15.0800 15.9476
vt -15.0908 15.8447
vt -15.0800 15.8447
vt -15.0908 15.8047
vt -15.0800 15.8047
vt -15.0706 15.8183
vt -15.0439 15.8183
vt -15.0439 15.8308
vt -15.0322 15.8047
vt -15.0322 15.8447
vt -15.0220 15.8447
vt -15.0220 15.9476
vt -15.0220 15.9755
vt -15.0706 15.8308
vt -15.0322 15.7924
vt -15.0808 15.7924
vt -15.0220 15.8047
vt -15.1319 15.8378
vt -15.0976 15.8378
vt -15.0976 15.8533
vt -15.1319 15.8533
vt -15.0976 15.9552
vt -15.1319 15.9552
vt -15.0976 15.9657
vt -15.1319 15.9657
vt -15.9374 15.7088
vt -15.9374 15.7213
vt -15.5429 15.7088
vt -15.5429 15.7213
vt -15.9374 15.8412
vt -15.5429 15.8412
vt -15.5429 15.8511
vt -15.9374 15.8511
vt -15.5348 15.7213
vt -15.5360 15.8412
vt -15.9470 15.8412
vt -15.9457 15.7213
vn 0.0299 -0.7658 -0.6423
vn 0.0299 -0.7659 -0.6422
vn 0.0299 -0.7659 -0.6423
vn 0.0300 -0.7658 -0.6424
vn 0.7128 -0.3607 0.6015
vn 0.5040 0.1886 0.8429
vn -0.6678 -0.1495 0.7292
vn -0.0286 -0.6767 0.7357
vn -0.0287 -0.6740 0.7381
vn 0.9847 -0.1529 -0.0832
vn 0.9828 -0.1740 -0.0617
vn -0.9850 0.1517 0.0821
vn -0.7353 0.6392 0.2254
vn -0.2565 0.3119 0.9148
vn 0.5354 0.8395 0.0929
vn 0.9208 0.3675 0.1309
vn 0.9992 0.0021 0.0401
vn 0.8548 0.1453 0.4982
vn 0.9991 0.0415 -0.0030
vn 0.6399 0.6023 -0.4773
vn 0.5685 0.8188 0.0804
vn -0.6309 0.7717 0.0805
vn -0.6078 0.2027 0.7678
vn -0.6912 0.5450 -0.4745
vn -0.8649 0.1655 0.4738
vn -0.9991 -0.0008 -0.0422
vn -0.9841 0.1678 0.0586
vn 0.5972 0.2480 0.7628
vn -0.0282 0.6316 -0.7748
vn -0.0280 0.6308 -0.7754
vn -0.9992 -0.0398 0.0043
vn -0.2273 0.9596 0.1659
vn 0.0302 -0.7662 -0.6419
vn 0.0302 -0.7660 -0.6421
vn 0.0300 -0.7608 -0.6483
vn 0.0115 -0.7629 -0.6464
vn -0.1661 -0.7620 -0.6259
vn -0.1846 -0.7615 -0.6213
vn -0.1844 -0.7557 -0.6284
vn -0.1848 -0.7561 -0.6278
vn 0.7891 0.0571 0.6116
vn 0.9350 0.3385 -0.1056
vn 0.9519 0.3007 -0.0592
vn 0.3403 0.4596 0.8203
vn -0.3880 0.2091 0.8976
vn -0.5273 -0.4045 0.7473
vn 0.2672 -0.5723 0.7753
vn 0.2666 -0.5712 0.7763
vn -0.9542 0.2216 0.2008
vn -0.6564 0.7458 0.1140
vn 0.0747 0.9967 0.0319
vn 0.6391 0.7624 0.1018
vn 0.9945 0.0890 -0.0552
vn 0.8463 0.2273 0.4818
vn 0.9991 0.0422 -0.0029
vn 0.6395 0.6028 -0.4772
vn 0.5683 0.8189 0.0803
vn -0.6306 0.7720 0.0803
vn -0.6082 0.2026 0.7675
vn -0.6912 0.5450 -0.4746
vn -0.8514 0.0589 0.5212
vn -0.9940 -0.0882 0.0650
vn -0.9540 -0.2943 0.0579
vn -0.9358 -0.3357 0.1075
vn 0.5967 0.2478 0.7633
vn -0.0283 0.6316 -0.7748
vn 0.2071 -0.7915 -0.5750
vn 0.2069 -0.7921 -0.5742
vn 0.1927 -0.7614 -0.6189
vn 0.1803 -0.7650 -0.6183
vn 0.0437 -0.7705 -0.6359
vn 0.0307 -0.7758 -0.6303
vn 0.0249 -0.6316 0.7749
vn 0.5755 0.0993 0.8117
vn 0.0250 -0.6330 0.7738
vn -0.5805 0.0534 0.8125
vn 0.5441 0.8355 -0.0766
vn -0.6079 0.7903 -0.0768
vn -0.0249 0.6317 -0.7748
vn -0.0250 0.6328 -0.7739
vn -0.9992 -0.0397 0.0000
vn -0.9993 -0.0386 0.0011
vn 0.9992 0.0397 -0.0002
vn 0.9993 0.0373 -0.0018
usemtl None.002
s 1
f 1/1/1 2/2/2 3/3/3
f 4/4/4 1/1/1 3/3/3
f 5/5/5 6/6/6 7/7/7
f 5/5/5 7/7/7 8/8/8
f 9/9/9 5/5/5 8/8/8
f 5/5/5 10/10/10 11/11/11
f 12/12/12 7/7/7 13/13/13
f 7/7/7 14/14/14 13/13/13
f 6/6/6 14/14/14 7/7/7
f 6/6/6 15/15/15 14/14/14
f 15/15/15 6/6/6 5/5/5
f 16/16/16 15/15/15 5/5/5
f 16/16/16 5/5/5 11/11/11
f 11/11/11 17/17/17 16/16/16
f 17/17/17 18/18/18 16/16/16
f 17/17/17 19/19/19 18/18/18
f 19/19/19 20/20/20 18/18/18
f 20/20/20 21/21/21 18/18/18
f 22/22/22 21/21/21 20/20/20
f 21/21/21 22/22/22 23/23/23
f 23/23/23 22/22/22 24/24/24
f 25/25/25 23/23/23 24/24/24
f 25/25/25 24/24/24 26/26/26
f 26/26/26 27/27/27 25/25/25
f 27/27/27 13/13/13 25/25/25
f 27/27/27 12/12/12 13/13/13
f 28/28/28 21/21/21 23/23/23
f 28/28/28 23/23/23 25/25/25
f 18/18/18 28/28/28 25/25/25
f 25/25/25 13/13/13 18/18/18
f 13/13/13 16/16/16 18/18/18
f 21/21/21 28/28/28 18/18/18
f 24/24/24 22/22/22 20/20/20
f 29/29/29 24/24/24 20/20/20
f 30/30/30 29/29/29 20/20/20
f 24/24/24 31/31/31 26/26/26
f 14/14/14 32/32/32 13/13/13
f 15/15/15 32/32/32 14/14/14
f 32/32/32 15/15/15 16/16/16
f 13/13/13 32/32/32 16/16/16
f 33/33/33 34/34/34 35/35/35
f 36/36/36 33/33/33 35/35/35
f 35/35/35 37/37/37 36/36/36
f 37/37/37 38/38/38 36/36/36
f 37/37/37 39/39/39 38/38/38
f 39/39/39 40/40/40 38/38/38
f 41/41/41 42/42/42 43/43/43
f 44/44/44 45/45/45 46/46/46
f 41/41/41 44/44/44 46/46/46
f 41/41/41 46/46/46 47/47/47
f 48/48/48 41/41/41 47/47/47
f 46/46/46 45/45/45 49/49/49
f 45/45/45 50/50/50 49/49/49
f 45/45/45 44/44/44 50/50/50
f 44/44/44 51/51/51 50/50/50
f 51/51/51 44/44/44 41/41/41
f 52/52/52 51/51/51 41/41/41
f 52/52/52 41/41/41 43/43/43
f 43/43/43 53/53/53 52/52/52
f 53/53/53 54/54/54 52/52/52
f 53/53/53 55/55/55 54/54/54
f 55/55/55 56/56/56 54/54/54
f 57/57/57 54/54/54 56/56/56
f 57/57/57 56/56/56 58/58/58
f 57/57/57 58/58/58 59/59/59
f 59/59/59 58/58/58 60/60/60
f 61/61/61 59/59/59 60/60/60
f 61/61/61 60/60/60 62/62/62
f 62/62/62 63/63/63 61/61/61
f 63/63/63 49/49/49 61/61/61
f 63/63/63 64/64/64 49/49/49
f 64/64/64 46/46/46 49/49/49
f 50/50/50 51/51/51 52/52/52
f 49/49/49 50/50/50 52/52/52
f 49/49/49 52/52/52 54/54/54
f 61/61/61 49/49/49 54/54/54
f 65/65/65 61/61/61 54/54/54
f 65/65/65 59/59/59 61/61/61
f 57/57/57 59/59/59 65/65/65
f 65/65/65 54/54/54 57/57/57
f 60/60/60 58/58/58 56/56/56
f 66/66/66 60/60/60 56/56/56
f 67/67/30 66/66/66 56/56/56
f 60/60/60 68/68/31 62/62/62
f 69/69/67 70/70/68 71/71/69
f 72/72/70 69/69/67 71/71/69
f 72/72/70 71/71/69 73/73/71
f 74/74/72 72/72/70 73/73/71
f 73/73/71 75/75/33 74/74/72
f 75/75/33 76/76/33 74/74/72
f 77/77/73 78/78/74 79/79/75
f 78/78/74 80/80/76 79/79/75
f 80/80/76 78/78/74 81/81/77
f 82/82/78 80/80/76 81/81/77
f 83/83/79 82/82/78 81/81/77
f 84/84/80 83/83/79 81/81/77
f 85/85/81 80/80/76 82/82/78
f 86/86/82 85/85/81 82/82/78
f 87/87/83 81/81/77 78/78/74
f 88/88/84 87/87/83 78/78/74
