# Blender v2.78 (sub 0) OBJ File: ''
# www.blender.org
mtllib Petticoat.mtl
o ruby.ruby.SMD.mesh_0
v 9.369794 2.144278 -0.797585
v 10.925175 2.386130 0.012561
v 10.229698 1.651804 -0.411714
v 10.934206 3.885430 -0.032201
v 8.469931 -1.079765 -0.876729
v -0.152680 2.596280 -1.139668
v 9.242018 0.269604 -0.858808
v 9.434080 1.076161 -0.865403
v 8.920548 3.697203 -0.865270
v 10.214660 5.450396 -0.239075
v 8.471036 5.250128 -0.932987
v 9.236557 5.962567 -0.579288
v 5.467767 -4.080544 -1.187578
v 6.681706 -3.433772 -1.119921
v 7.697297 -2.430228 -0.894682
v 9.995214 -2.272643 -0.135080
v 10.232426 -0.760211 -0.196397
v 9.977164 0.043067 -0.460725
v 8.039012 -3.384528 -0.675909
v 8.973062 -3.425023 -0.325914
v -1.824329 10.012899 -0.745152
v -3.128557 9.691149 -0.661400
v -0.442400 10.172669 -0.904930
v 0.947461 10.119045 -0.742176
v 2.271660 9.896878 -0.655785
v -2.024599 11.313019 -0.015647
v -1.443211 10.645449 -0.388934
v -3.311590 11.416988 0.233251
v -4.432511 9.368311 -0.577892
v -5.524155 9.194309 -0.807610
v -6.238240 8.489527 -0.843357
v -7.315932 7.319640 -0.899097
v -4.648376 10.853386 0.087560
v -5.109111 9.950525 -0.310150
v -8.954227 4.584789 -0.951605
v -9.283909 3.002316 -0.884675
v -8.752585 5.454821 -1.014599
v -8.394172 6.149749 -0.954983
v -9.271044 7.398440 -0.309682
v -8.252444 8.588027 -0.130024
v -6.887755 9.251217 -0.317131
v -6.387893 9.031249 -0.671055
v -9.203465 6.402555 -0.583965
v -10.709341 4.650457 -0.261571
v -9.773097 5.235948 -0.599655
v -11.308517 3.035153 -0.056058
v -9.614144 1.418750 -0.817845
v -9.596090 0.348446 -0.885839
v -9.343288 -0.440601 -0.878785
v -8.470521 -1.727594 -0.894831
v -11.185129 1.541323 -0.011022
v -10.434381 0.862807 -0.433899
v -5.247582 -4.489820 -1.198990
v -3.170999 -5.088449 -1.028879
v -6.507489 -3.938245 -1.133982
v -7.597762 -3.014587 -0.911039
v -9.902253 -3.032092 -0.156335
v -10.254092 -1.542639 -0.218233
v -10.060111 -0.722950 -0.482183
v -8.794192 -4.103490 -0.344938
v -7.865065 -3.992964 -0.692881
v -5.317357 -6.908398 -0.132551
v -5.952095 -5.957377 -0.464563
v -3.534888 -7.522347 0.011529
v -2.008502 -7.461070 -0.144580
v -1.094962 -5.688176 -0.858862
v 0.156189 -5.492280 -0.988001
v 1.417734 -5.591876 -0.856092
v 3.443162 -4.836760 -1.021783
v 5.720010 -6.487091 -0.120623
v 6.280881 -5.490110 -0.451494
v -1.143666 -6.866820 -0.477915
v 3.988427 -7.234547 0.019486
v 2.462314 -7.290356 -0.139812
v 1.555075 -6.763958 -0.475046
v 1.046230 11.430111 -0.012389
v 0.517644 10.720953 -0.386977
v 2.320636 11.631474 0.239285
v 3.596407 9.675812 -0.569256
v 4.698995 9.584979 -0.796680
v 5.464237 8.936009 -0.830811
v 6.628658 7.851471 -0.884186
v 3.696818 11.172922 0.096539
v 4.225950 10.307267 -0.300236
v 6.052469 9.744753 -0.303345
v 5.571490 9.488667 -0.658165
v 7.463946 9.188807 -0.113091
v 8.569812 8.080196 -0.290585
v 7.793075 6.768035 -0.937710
v 8.203465 6.102653 -0.996498
v 8.578838 7.082120 -0.564861
vt -15.5242 15.9356
vt -15.5164 15.9352
vt -15.5200 15.9388
vt -15.5160 15.9268
vt -15.5293 15.9532
vt -15.5716 15.9308
vt -15.5252 15.9459
vt -15.5241 15.9415
vt -15.5261 15.9268
vt -15.5193 15.9178
vt -15.5281 15.9181
vt -15.5241 15.9145
vt -15.5448 15.9689
vt -15.5386 15.9657
vt -15.5334 15.9605
vt -15.5219 15.9607
vt -15.5204 15.9523
vt -15.5216 15.9476
vt -15.5319 15.9660
vt -15.5272 15.9667
vt -15.5785 15.8897
vt -15.5851 15.8912
vt -15.5716 15.8889
vt -15.5647 15.8897
vt -15.5581 15.8912
vt -15.5793 15.8829
vt -15.5765 15.8865
vt -15.5857 15.8823
vt -15.5917 15.8928
vt -15.5971 15.8934
vt -15.6008 15.8971
vt -15.6064 15.9033
vt -15.5924 15.8850
vt -15.5949 15.8896
vt -15.6151 15.9181
vt -15.6171 15.9268
vt -15.6139 15.9132
vt -15.6120 15.9095
vt -15.6162 15.9029
vt -15.6109 15.8967
vt -15.6039 15.8931
vt -15.6015 15.8942
vt -15.6160 15.9082
vt -15.6238 15.9178
vt -15.6191 15.9145
vt -15.6271 15.9268
vt -15.6190 15.9356
vt -15.6191 15.9415
vt -15.6180 15.9459
vt -15.6139 15.9532
vt -15.6268 15.9352
vt -15.6232 15.9388
vt -15.5984 15.9689
vt -15.5881 15.9728
vt -15.6045 15.9657
vt -15.6098 15.9605
vt -15.6213 15.9607
vt -15.6228 15.9523
vt -15.6216 15.9476
vt -15.6160 15.9667
vt -15.6113 15.9660
vt -15.5992 15.9831
vt -15.6021 15.9775
vt -15.5904 15.9870
vt -15.5828 15.9869
vt -15.5779 15.9767
vt -15.5716 15.9758
vt -15.5653 15.9767
vt -15.5551 15.9728
vt -15.5440 15.9831
vt -15.5410 15.9775
vt -15.5783 15.9835
vt -15.5528 15.9870
vt -15.5604 15.9869
vt -15.5648 15.9835
vt -15.5639 15.8829
vt -15.5667 15.8865
vt -15.5575 15.8823
vt -15.5515 15.8928
vt -15.5461 15.8934
vt -15.5424 15.8971
vt -15.5368 15.9033
vt -15.5507 15.8850
vt -15.5483 15.8896
vt -15.5393 15.8931
vt -15.5417 15.8942
vt -15.5323 15.8967
vt -15.5270 15.9029
vt -15.5312 15.9095
vt -15.5293 15.9132
vt -15.5272 15.9082
vn 0.2117 0.0344 -0.9767
vn 0.4618 0.0014 -0.8870
vn 0.4494 0.0881 -0.8890
vn 0.4036 0.0323 -0.9144
vn 0.1942 -0.0847 -0.9773
vn 0.0004 0.0177 -0.9998
vn 0.1730 -0.0821 -0.9815
vn 0.0323 0.0237 -0.9992
vn 0.2067 0.0149 -0.9783
vn 0.3693 0.0605 -0.9274
vn 0.1673 -0.0027 -0.9859
vn 0.3615 0.0730 -0.9295
vn 0.0303 -0.1435 -0.9892
vn 0.0756 0.0824 -0.9937
vn 0.1826 -0.0317 -0.9827
vn 0.3427 -0.1259 -0.9310
vn 0.3882 -0.1448 -0.9101
vn 0.4332 -0.1545 -0.8879
vn 0.3460 -0.0902 -0.9339
vn 0.3262 -0.1180 -0.9379
vn -0.1039 0.2204 -0.9699
vn -0.1220 0.2440 -0.9621
vn -0.0001 0.0310 -0.9995
vn 0.0890 0.2279 -0.9696
vn 0.1051 0.2526 -0.9618
vn -0.1022 0.4748 -0.8742
vn 0.0024 0.4896 -0.8719
vn -0.1305 0.4376 -0.8896
vn 0.0092 0.2528 -0.9675
vn 0.0733 0.1096 -0.9913
vn -0.1544 0.1530 -0.9761
vn -0.1429 0.1921 -0.9709
vn -0.0551 0.4016 -0.9141
vn -0.0106 0.4076 -0.9131
vn -0.1645 -0.0155 -0.9863
vn -0.2050 -0.0008 -0.9788
vn -0.0125 0.0062 -0.9999
vn -0.1161 0.1515 -0.9816
vn -0.2804 0.3032 -0.9107
vn -0.2713 0.3446 -0.8987
vn -0.3469 0.2993 -0.8889
vn -0.5394 0.1163 -0.8340
vn -0.3463 0.2272 -0.9102
vn -0.3707 0.0321 -0.9282
vn -0.3641 0.0450 -0.9303
vn -0.4029 0.0015 -0.9153
vn -0.2116 0.0183 -0.9772
vn -0.0319 0.0213 -0.9993
vn -0.1641 -0.0950 -0.9819
vn -0.1851 -0.0992 -0.9777
vn -0.4587 -0.0339 -0.8880
vn -0.4529 0.0536 -0.8900
vn -0.0171 -0.1453 -0.9892
vn 0.0110 -0.2164 -0.9762
vn -0.0795 0.0764 -0.9939
vn -0.1776 -0.0456 -0.9831
vn -0.3302 -0.1516 -0.9317
vn -0.3741 -0.1740 -0.9109
vn -0.4180 -0.1873 -0.8889
vn -0.3143 -0.1426 -0.9386
vn -0.3361 -0.1166 -0.9346
vn -0.0676 -0.3937 -0.9168
vn -0.1200 -0.3976 -0.9097
vn -0.0685 -0.3835 -0.9210
vn -0.0761 -0.3599 -0.9299
vn -0.0306 -0.1618 -0.9863
vn 0.0018 -0.0187 -0.9998
vn 0.0449 -0.1589 -0.9863
vn 0.0077 -0.2167 -0.9762
vn 0.0994 -0.3874 -0.9165
vn 0.1519 -0.3873 -0.9094
vn -0.1583 -0.2977 -0.9414
vn 0.0995 -0.3772 -0.9208
vn 0.1053 -0.3530 -0.9297
vn 0.1826 -0.2846 -0.9411
vn 0.0678 0.4813 -0.8739
vn -0.0370 0.4882 -0.8720
vn 0.0985 0.4464 -0.8894
vn -0.0264 0.2515 -0.9675
vn -0.0793 0.1037 -0.9914
vn 0.1444 0.1644 -0.9758
vn 0.1298 0.2026 -0.9706
vn 0.0261 0.4048 -0.9141
vn -0.0184 0.4073 -0.9131
vn 0.3250 0.3249 -0.8882
vn 0.5307 0.1572 -0.8328
vn 0.2460 0.3643 -0.8982
vn 0.2585 0.3237 -0.9101
vn 0.1063 0.1600 -0.9814
vn 0.0141 0.0072 -0.9999
vn 0.3304 0.2529 -0.9093
usemtl None
s 1
f 1/1/1 2/2/2 3/3/3
f 4/4/4 2/2/2 1/1/1
f 5/5/5 6/6/6 7/7/7
f 7/7/7 6/6/6 8/8/8
f 8/8/8 6/6/6 1/1/1
f 1/1/1 6/6/6 9/9/9
f 9/9/9 4/4/4 1/1/1
f 10/10/10 4/4/4 9/9/9
f 11/11/11 10/10/10 9/9/9
f 10/10/10 11/11/11 12/12/12
f 13/13/13 6/6/6 14/14/14
f 14/14/14 6/6/6 15/15/15
f 15/15/15 6/6/6 5/5/5
f 5/5/5 16/16/16 15/15/15
f 17/17/17 16/16/16 5/5/5
f 7/7/7 17/17/17 5/5/5
f 7/7/7 18/18/18 17/17/17
f 19/19/19 15/15/15 20/20/20
f 16/16/16 20/20/20 15/15/15
f 21/21/21 6/6/6 22/22/22
f 23/23/23 6/6/6 21/21/21
f 24/24/24 6/6/6 23/23/23
f 25/25/25 6/6/6 24/24/24
f 21/21/21 26/26/26 27/27/27
f 26/26/26 21/21/21 28/28/28
f 21/21/21 22/22/22 28/28/28
f 28/28/28 22/22/22 29/29/29
f 22/22/22 6/6/6 29/29/29
f 29/29/29 6/6/6 30/30/30
f 30/30/30 6/6/6 31/31/31
f 31/31/31 6/6/6 32/32/32
f 33/33/33 28/28/28 29/29/29
f 33/33/33 29/29/29 34/34/34
f 35/35/35 6/6/6 36/36/36
f 37/37/37 6/6/6 35/35/35
f 38/38/38 6/6/6 37/37/37
f 32/32/32 6/6/6 38/38/38
f 38/38/38 39/39/39 32/32/32
f 39/39/39 40/40/40 32/32/32
f 40/40/40 41/41/41 32/32/32
f 41/41/41 31/31/31 32/32/32
f 41/41/41 42/42/42 31/31/31
f 39/39/39 38/38/38 43/43/43
f 35/35/35 44/44/44 45/45/45
f 35/35/35 36/36/36 44/44/44
f 36/36/36 46/46/46 44/44/44
f 36/36/36 47/47/47 46/46/46
f 36/36/36 6/6/6 47/47/47
f 47/47/47 6/6/6 48/48/48
f 48/48/48 6/6/6 49/49/49
f 49/49/49 6/6/6 50/50/50
f 47/47/47 51/51/51 46/46/46
f 51/51/51 47/47/47 52/52/52
f 53/53/53 6/6/6 54/54/54
f 55/55/55 6/6/6 53/53/53
f 56/56/56 6/6/6 55/55/55
f 50/50/50 6/6/6 56/56/56
f 50/50/50 56/56/56 57/57/57
f 50/50/50 57/57/57 58/58/58
f 49/49/49 50/50/50 58/58/58
f 49/49/49 58/58/58 59/59/59
f 56/56/56 60/60/60 57/57/57
f 61/61/61 60/60/60 56/56/56
f 62/62/62 63/63/63 53/53/53
f 62/62/62 53/53/53 54/54/54
f 64/64/64 62/62/62 54/54/54
f 65/65/65 64/64/64 54/54/54
f 66/66/66 65/65/65 54/54/54
f 54/54/54 6/6/6 66/66/66
f 66/66/66 6/6/6 67/67/67
f 67/67/67 6/6/6 68/68/68
f 68/68/68 6/6/6 69/69/69
f 69/69/69 6/6/6 13/13/13
f 13/13/13 70/70/70 69/69/69
f 71/71/71 70/70/70 13/13/13
f 65/65/65 66/66/66 72/72/72
f 73/73/73 69/69/69 70/70/70
f 69/69/69 73/73/73 74/74/74
f 68/68/68 69/69/69 74/74/74
f 68/68/68 74/74/74 75/75/75
f 76/76/76 24/24/24 77/77/77
f 76/76/76 78/78/78 24/24/24
f 78/78/78 25/25/25 24/24/24
f 79/79/79 25/25/25 78/78/78
f 79/79/79 6/6/6 25/25/25
f 80/80/80 6/6/6 79/79/79
f 81/81/81 6/6/6 80/80/80
f 82/82/82 6/6/6 81/81/81
f 83/83/83 79/79/79 78/78/78
f 79/79/79 83/83/83 84/84/84
f 85/85/85 81/81/81 86/86/86
f 82/82/82 81/81/81 85/85/85
f 87/87/87 82/82/82 85/85/85
f 82/82/82 87/87/87 88/88/88
f 89/89/89 82/82/82 88/88/88
f 89/89/89 6/6/6 82/82/82
f 90/90/90 6/6/6 89/89/89
f 11/11/11 6/6/6 90/90/90
f 9/9/9 6/6/6 11/11/11
f 89/89/89 88/88/88 91/91/91
